PathFileType	4	(X/Y/Z)	s03c0403.trc
DataRate	CameraRate	NumFrames	NumMarkers	Units	OrigDataRate	OrigDataStartFrame	OrigNumFrames
200	200	5	52	mm	200	1250	2000
Frame#	Time	racr			lacr			c7			jug			rlel			rdr			llel			ldr			s2			lic			ric			lasi			rasi			rpsi			lpsi			rgt			lgt			rth1			rth2			rth3			rth4			rlfc			rmfc			rsh1			rsh2			rsh3			rsh4			rlmal			rmmal			rcal			rtoe			rmt5			rmt1			lth1			lth2			lth4			lth3			llfc			lmfc			lsh1			lsh2			lsh3			lsh4			llmal			lmmal			lcal			ltoe			lmt1			lmt5			SBIKE			LBIKE			RBIKE			
		X1	Y1	Z1	X2	Y2	Z2	X3	Y3	Z3	X4	Y4	Z4	X5	Y5	Z5	X6	Y6	Z6	X7	Y7	Z7	X8	Y8	Z8	X9	Y9	Z9	X10	Y10	Z10	X11	Y11	Z11	X12	Y12	Z12	X13	Y13	Z13	X14	Y14	Z14	X15	Y15	Z15	X16	Y16	Z16	X17	Y17	Z17	X18	Y18	Z18	X19	Y19	Z19	X20	Y20	Z20	X21	Y21	Z21	X22	Y22	Z22	X23	Y23	Z23	X24	Y24	Z24	X25	Y25	Z25	X26	Y26	Z26	X27	Y27	Z27	X28	Y28	Z28	X29	Y29	Z29	X30	Y30	Z30	X31	Y31	Z31	X32	Y32	Z32	X33	Y33	Z33	X34	Y34	Z34	X35	Y35	Z35	X36	Y36	Z36	X37	Y37	Z37	X38	Y38	Z38	X39	Y39	Z39	X40	Y40	Z40	X41	Y41	Z41	X42	Y42	Z42	X43	Y43	Z43	X44	Y44	Z44	X45	Y45	Z45	X46	Y46	Z46	X47	Y47	Z47	X48	Y48	Z48	X49	Y49	Z49	X50	Y50	Z50	X51	Y51	Z51	X52	Y52	Z52	
1250	6.2500	841.271852	1344.826396	-52.028905	805.966832	1379.451523	-386.917792	797.122696	1467.981125	-203.272564	746.975157	1298.028496	-221.972988	632.468490	1190.949008	111.416503	745.437521	980.151066	-9.493524	650.980529	1216.219690	-568.901053	739.215344	976.144236	-461.274219	222.825808	1304.142902	-186.860557	393.367240	1320.839412	-367.999847	397.183030	1284.539891	-3.714949	400.322592	1242.349098	-330.591442	412.477903	1215.491982	-54.331091	260.644798	1345.311664	-126.192386	262.433281	1353.851209	-208.119515	318.065042	1180.691982	-1.342567	335.264870	1222.838783	-394.015506	360.216890	1022.732279	3.772650	408.706774	948.808788	-4.140208	416.860093	865.084628	-20.051177	442.812143	961.935466	-10.229398	444.918775	744.199577	-58.677990	452.385959	733.308906	-169.666037	386.854803	586.087585	-32.536374	379.500693	497.687268	-48.372882	328.890284	425.481345	-49.968493	406.492129	491.239798	-75.683014	270.718112	308.241181	-71.516127	293.906221	314.626617	-152.526615	199.845490	290.790885	-100.915629	488.575452	170.745411	-118.950360	375.134842	200.651838	-42.423028	399.671847	209.672379	-156.897211	421.552677	1098.869795	-427.355430	485.347986	1040.601078	-435.166245	514.802561	1056.781096	-419.703130	511.107605	955.978494	-446.423913	571.216296	841.590795	-444.703914	562.794934	812.778996	-321.324822	417.714962	755.149704	-464.933267	360.353568	695.474133	-445.503509	273.934720	669.090333	-437.986162	378.734279	669.814486	-423.852401	161.809258	610.745194	-417.562445	196.351372	597.093198	-331.273772	90.856770	633.425835	-369.338332	253.596543	371.872897	-352.089189	196.839871	447.858661	-312.677062	170.086231	453.216738	-429.463649	-212.844605	945.791689	-230.812716	-9.123342	81.120638	-433.318670	-9.094094	80.564209	-32.893788	
1251	6.2550	841.571280	1345.543480	-53.791565	805.232615	1380.320499	-388.994128	796.713587	1468.646636	-205.154359	746.852137	1298.561354	-223.595048	633.613128	1191.400109	110.387756	745.983609	980.072407	-9.802241	650.346055	1215.762534	-570.175792	739.288796	976.152840	-461.815996	223.739138	1301.697299	-182.820409	392.271342	1320.808234	-367.863065	398.871500	1283.155716	-3.860991	400.578252	1242.288892	-330.371698	414.792509	1214.268719	-54.776674	261.532952	1342.838807	-127.779687	262.702720	1351.423026	-210.933878	318.716192	1178.385638	-1.590611	336.164961	1223.454211	-393.671620	357.807989	1020.474875	3.794108	404.588583	945.452705	-4.164625	410.775515	861.543149	-20.047846	438.878355	957.819365	-10.246926	436.428572	740.209538	-58.859537	443.528964	728.436491	-169.511887	379.385348	582.187268	-32.351639	372.852462	493.688318	-47.901262	322.888466	420.954189	-49.243155	399.804531	487.364710	-75.220598	265.425454	303.252725	-71.073066	288.575678	309.711063	-151.614123	194.757026	287.868873	-100.136996	480.539246	161.191084	-119.279602	368.075989	193.438153	-42.307686	392.398832	202.118323	-156.864672	425.209934	1102.075270	-427.112464	489.683067	1044.920134	-435.648819	519.848212	1061.197241	-417.934095	517.312715	960.855679	-446.783829	577.751152	846.231971	-445.452363	570.000214	816.971242	-321.565638	423.897613	761.179238	-465.181183	365.915276	701.757931	-445.163067	279.268953	676.173688	-437.263900	384.203958	675.951272	-423.652451	166.995929	618.160709	-416.942755	201.645359	604.994766	-330.610387	95.026810	639.437740	-368.899841	262.857967	380.519193	-351.361130	204.307179	455.636690	-312.627473	178.227681	460.885050	-429.725546	-212.923866	945.780265	-230.933572	-9.119950	81.101612	-433.329365	-9.110817	80.551414	-32.907776	
1252	6.2600	841.969032	1346.207024	-55.627294	804.469144	1381.129288	-391.166983	796.404776	1469.307084	-207.203054	746.707711	1299.118230	-225.316523	634.827019	1192.057490	109.276841	746.667060	980.061233	-9.946111	649.655344	1215.288177	-571.592499	739.414699	976.202971	-462.530094	225.263631	1299.869549	-180.732570	391.281612	1320.665820	-366.105258	400.800913	1281.910311	-3.994138	400.782522	1242.349650	-330.312400	416.887232	1213.071973	-55.202587	262.196867	1340.280344	-130.980528	262.697706	1349.388504	-210.389132	319.550501	1176.322446	-1.712761	337.061340	1224.232048	-393.336446	355.477166	1018.460634	3.775521	400.550349	942.350836	-4.148937	404.808141	858.335787	-19.995497	435.150974	953.973109	-10.422691	427.914716	736.793985	-58.902703	434.248552	723.924535	-169.638417	372.015832	578.704320	-32.316742	365.835681	490.251319	-47.266440	316.397474	417.104604	-48.511127	392.917431	483.974345	-74.509710	259.909894	298.904931	-70.656951	282.969398	305.250866	-150.525865	189.497368	285.487542	-99.055509	472.104157	152.019496	-119.716133	360.764796	186.754097	-42.180814	384.704765	195.230645	-156.830534	428.763524	1105.349614	-426.866732	494.625483	1049.261938	-434.453184	523.967515	1065.704059	-417.028459	523.288146	965.569782	-446.665495	584.382759	850.782439	-445.851743	577.137251	821.490813	-321.624244	430.097609	766.772672	-464.863976	371.726927	707.724979	-444.755926	284.898215	682.744302	-436.483817	389.889906	681.708035	-423.375247	172.688129	624.950201	-416.281317	207.282087	612.218760	-330.125182	99.803813	644.768648	-368.488832	272.490507	389.394528	-352.105915	212.482511	463.021564	-312.641237	186.678055	468.157840	-429.750205	-213.031796	945.752586	-231.009203	-9.155180	81.093084	-433.352020	-9.118217	80.559147	-32.930038	
1253	6.2650	842.443274	1346.996247	-57.597586	803.690498	1382.099743	-393.843672	796.121142	1469.914156	-209.383294	746.713516	1299.576882	-227.080374	636.165407	1192.855977	108.101335	747.330542	980.017193	-9.950483	648.948001	1214.975350	-573.259980	739.531262	976.365371	-463.312522	225.950455	1297.931085	-179.775064	390.008813	1320.746941	-365.841789	402.732373	1280.733241	-4.082651	400.904375	1242.513957	-330.375965	418.832293	1212.179748	-55.650401	263.288138	1338.384894	-130.033102	262.746710	1349.388757	-206.262257	320.399199	1174.360853	-1.909906	337.874739	1225.084673	-392.942954	353.196909	1016.610662	3.744213	396.623903	939.583675	-4.102381	398.994559	855.434428	-19.882852	431.396499	950.398022	-10.496102	419.131026	733.810231	-58.718132	425.023440	719.959532	-169.699040	364.131061	575.842301	-31.881151	358.543049	487.240916	-46.553138	309.609260	413.702252	-47.695815	385.791826	481.034426	-73.690393	254.211316	295.294595	-69.719089	277.031463	301.622825	-149.301949	183.984505	283.723824	-97.882752	463.186544	143.842930	-119.366416	352.974419	180.571113	-41.991717	376.985157	189.191423	-156.407292	432.028472	1108.577885	-426.707539	498.748604	1053.850522	-435.238735	527.625347	1070.357491	-416.631573	528.658476	970.299905	-446.853989	590.858884	855.355921	-446.202759	584.090318	826.321340	-321.573571	436.342456	772.152726	-464.459249	377.835870	713.362858	-444.230256	290.731548	688.886451	-436.045933	395.936665	687.185403	-422.959435	178.959956	631.169491	-415.685239	213.388981	618.713469	-329.230687	105.127555	649.490119	-368.030272	282.379612	396.997567	-351.789755	221.043045	469.782896	-312.628047	195.380500	474.693131	-429.613220	-213.137352	945.725670	-231.072811	-9.168708	81.053440	-433.347235	-9.136348	80.563776	-32.947246	
1254	6.2700	842.978330	1347.699742	-59.699902	802.988552	1382.848350	-396.128165	795.871905	1470.492296	-211.627505	746.726014	1300.021354	-228.958274	637.498047	1193.811841	106.834002	748.081263	979.965720	-9.801827	648.330535	1214.712802	-575.104560	739.646795	976.564674	-464.161818	226.083925	1298.125951	-177.571317	388.661114	1320.907089	-365.635734	404.810680	1279.592267	-4.191894	400.995160	1242.757485	-330.535602	420.675305	1211.329604	-56.229953	264.304584	1336.772985	-128.977925	262.976539	1347.254299	-208.882287	321.376901	1172.533566	-2.166849	338.565100	1226.053094	-392.523891	350.996378	1015.017653	3.689534	392.822696	937.047126	-4.013442	393.437955	852.810412	-19.706672	427.748907	947.185761	-10.501540	411.241505	730.956567	-58.817134	415.453612	716.802325	-170.094712	356.101116	573.317931	-31.349724	351.166883	484.631009	-45.694683	302.616632	410.877192	-46.798130	378.580060	478.498616	-72.588893	248.472419	292.054898	-68.713008	270.925866	298.308604	-148.049039	178.237812	282.408836	-96.602497	453.770016	135.751820	-119.692975	344.871907	174.857242	-41.735291	368.269069	183.190621	-156.535834	434.787226	1111.730180	-427.303277	502.043372	1057.907013	-435.688379	531.085198	1074.629990	-416.403488	533.463178	974.739180	-447.124162	597.055921	860.050753	-446.512325	590.831925	831.291584	-321.593725	442.712185	777.339941	-463.954877	384.212675	718.546083	-443.673009	297.093680	694.216503	-435.236882	402.306968	692.365083	-422.514374	185.316330	636.464679	-415.005355	220.101430	624.582197	-327.715373	110.984856	653.554930	-367.473815	293.470142	405.003740	-353.254200	229.943256	475.807002	-312.632376	204.284812	480.584812	-429.252410	-213.227096	945.690499	-231.130453	-9.199045	81.045599	-433.352033	-9.164772	80.581496	-32.960585	
